# Blender v2.79 (sub 0) OBJ File: 'SimonStumblesKeypadsFix.blend'
# www.blender.org
mtllib ArrowButtonFix.mtl
o group_0_4634441
v 4.750299 -0.750000 -5.000000
v 6.999699 -0.750000 -7.411301
v 4.750299 0.250000 -5.000000
v 6.999699 0.250000 -7.411301
v -0.080000 -0.750000 -15.000000
v -0.080000 0.250000 -15.000000
v -4.591299 0.250000 -5.000000
v -7.000000 -0.750000 -7.581900
v -4.591299 -0.750000 -5.000000
v -7.000000 0.250000 -7.581900
vn 0.7312 0.0000 -0.6822
vn 0.7312 0.0000 0.6821
vn 0.0000 -1.0000 0.0000
vn -0.7312 0.0000 -0.6821
vn 0.0000 0.0000 1.0000
vn -0.7312 0.0000 0.6822
vn 0.0000 1.0000 0.0000
usemtl color_4634441
s off
f 6//1 4//1 2//1 5//1
f 4//2 3//2 1//2 2//2
f 8//3 5//3 2//3 1//3 9//3
f 8//4 10//4 6//4 5//4
f 7//5 9//5 1//5 3//5
f 8//6 9//6 7//6 10//6
f 6//7 10//7 7//7 3//7 4//7
