# Blender v2.79 (sub 0) OBJ File: 'SimonStumblesKeypadsFix.blend'
# www.blender.org
mtllib CenterButtonFix.mtl
o group_0_15277357
v 4.500000 0.750000 -4.500000
v 4.500000 0.750000 4.500000
v 4.500000 -0.750000 4.500000
v 4.500000 -0.750000 -4.500000
v -4.500000 0.750000 4.500000
v -4.500000 0.750000 -4.500000
v -4.500000 -0.750000 -4.500000
v -4.500000 -0.750000 4.500000
vn 1.0000 0.0000 0.0000
vn 0.0000 0.0000 1.0000
vn -1.0000 0.0000 0.0000
vn 0.0000 1.0000 0.0000
vn 0.0000 -1.0000 0.0000
vn 0.0000 0.0000 -1.0000
usemtl color_15277357
s off
f 1//1 2//1 3//1
f 3//1 4//1 1//1
f 3//2 2//2 5//2
f 6//3 7//3 5//3
f 3//2 5//2 8//2
f 7//3 8//3 5//3
f 1//4 6//4 5//4
f 1//4 5//4 2//4
f 3//5 8//5 7//5
f 3//5 7//5 4//5
f 1//6 7//6 6//6
f 7//6 1//6 4//6
